<svg width="80" height="80" viewBox="0 0 80 80" fill="none" xmlns="http://www.w3.org/2000/svg">
<path d="M1.00887 25.2499C1.00887 32.5717 0.775504 41.1617 2.702 46.299C2.70211 73.9121 8.72735 62.2302 15.7912 72.5048C22.855 82.7795 52.9059 79.4571 56.1167 78.1728C59.3275 76.8885 72.2836 65.0794 72.2836 65.0794C76.6737 59.8308 80.5394 29.6354 77.4577 27.836C70.8105 23.9547 68.2179 10.3653 61.3724 4.70059C59.3935 3.06299 53.0244 6.62716 47.2449 2.77418C41.4654 -1.07881 38.2546 0.205435 28.6221 0.205435C22.7016 0.205436 22.8425 3.64986 21.5583 4.70059C14.4945 10.4801 1.00887 14.9754 1.00887 25.2499Z" fill="#ECF4F7"/>
<rect x="70.5908" y="26.9269" width="5.13732" height="5.13732" rx="2" transform="rotate(44.6876 70.5908 26.9269)" fill="#DAE7ED"/>
<rect x="26.1968" y="2.948" width="3.0468" height="3.0468" rx="1.5234" transform="rotate(44.6876 26.1968 2.948)" fill="#DAE7ED"/>
<rect x="8.50049" y="57.237" width="3.0468" height="3.0468" rx="1.5234" transform="rotate(44.6876 8.50049 57.237)" fill="#DAE7ED"/>
<rect x="70.6621" y="55.6958" width="3.0468" height="3.0468" rx="1.5234" transform="rotate(44.6876 70.6621 55.6958)" fill="#DAE7ED"/>
<rect x="26.4814" y="71.6215" width="3.0468" height="3.0468" rx="1.5234" transform="rotate(44.6876 26.4814 71.6215)" fill="#DAE7ED"/>
<rect x="32.2134" y="73.3853" width="3.59612" height="3.59612" rx="1" transform="rotate(9.98517 32.2134 73.3853)" fill="#DAE7ED"/>
<path d="M55.2716 29.638C57.8797 27.8974 59.4476 24.969 59.4476 21.8333V6.92297H19.5874V21.8333C19.5874 24.969 21.1552 27.8974 23.7634 29.638L36.1453 38.7301C36.5944 39.0596 36.8601 39.5831 36.8601 40.1398C36.8601 40.6965 36.5944 41.22 36.1467 41.5495L23.7647 50.6416C21.1552 52.3822 19.5874 55.3106 19.5874 58.4462V73.3566H59.4476V58.4462C59.4476 55.3106 57.8797 52.3822 55.2716 50.6416L42.8897 41.5495C42.4406 41.22 42.1748 40.6965 42.1748 40.1398C42.1748 39.5831 42.4406 39.0596 42.8883 38.7301L55.2716 29.638Z" fill="#E6E6E6"/>
<path d="M66.0912 73.3566H12.9443V78.6713H66.0912V73.3566Z" fill="#9E6C53"/>
<path d="M66.0912 1.60834H12.9443V6.92303H66.0912V1.60834Z" fill="#9E6C53"/>
<path d="M71.4057 77.3427H66.0911H7.62945C6.89603 77.3427 6.30078 77.9366 6.30078 78.6713C6.30078 79.4061 6.89603 80 7.62945 80H66.0911H71.4057C72.1392 80 72.7344 79.4061 72.7344 78.6713C72.7344 77.9366 72.1392 77.3427 71.4057 77.3427Z" fill="#8A5336"/>
<path d="M7.62945 2.93701H66.0911H71.4057C72.1392 2.93701 72.7344 2.34309 72.7344 1.60834C72.7344 0.87358 72.1392 0.279663 71.4057 0.279663H66.0911H7.62945C6.89603 0.279663 6.30078 0.87358 6.30078 1.60834C6.30078 2.34309 6.89603 2.93701 7.62945 2.93701Z" fill="#8A5336"/>
<path d="M53.0596 26.3217C54.5637 25.3185 55.4619 23.6404 55.4619 21.8347C55.4619 20.0995 54.2807 18.5861 52.5973 18.1649L32.5967 13.1651C28.0142 12.0185 23.5737 15.485 23.5737 20.2098V21.8347C23.5737 23.6404 24.4719 25.3185 25.976 26.3217L38.1891 35.2849V56.3802C38.1891 61.2033 33.188 64.4001 28.8114 62.3739C26.4543 61.283 23.6003 62.8974 23.5751 65.4949C23.5751 65.5135 23.5751 65.5308 23.5751 65.5494V73.3567H55.4632V58.445C55.4632 58.4264 55.4632 58.4091 55.4632 58.3905C55.438 55.8248 52.9533 53.9767 50.4262 54.4164L47.7038 54.8908C44.123 55.5139 40.8465 52.7583 40.8465 49.1257V35.2849L53.0596 26.3217Z" fill="#F2C94C"/>
</svg>
