<?xml version="1.0" encoding="UTF-8"?>
<svg width="100px" height="82px" viewBox="0 0 100 82" version="1.1" xmlns="http://www.w3.org/2000/svg" xmlns:xlink="http://www.w3.org/1999/xlink">
    <!-- Generator: sketchtool 51.3 (57544) - http://www.bohemiancoding.com/sketch -->
    <title>B952B8E5-C600-4B5B-AA87-649DBC091863</title>
    <desc>Created with sketchtool.</desc>
    <defs></defs>
    <g id="LEARNER---Public" stroke="none" stroke-width="1" fill="none" fill-rule="evenodd">
        <g id="Q-&amp;-A-Empty" transform="translate(-821.000000, -640.000000)">
            <g id="Rectangle-7" transform="translate(553.000000, 527.000000)">
                <g id="img_emptyQA" transform="translate(268.000000, 113.000000)">
                    <path d="M43.1818182,57 L23.3778923,69.1023991 C22.7677699,69.4752517 22.00501,69.4940204 21.377288,69.1516266 C20.4075914,68.6227012 20.0502757,67.4078279 20.5792012,66.4381312 L25.7272727,57 L6,57 C2.6862915,57 4.05812251e-16,54.3137085 0,51 L0,6 C-4.05812251e-16,2.6862915 2.6862915,6.08718376e-16 6,0 L82,0 C85.3137085,-6.08718376e-16 88,2.6862915 88,6 L88,51 C88,54.3137085 85.3137085,57 82,57 L43.1818182,57 Z" id="Combined-Shape-Copy" fill="#EAEAEA"></path>
                    <path d="M52.1389182,65.2934363 C53.0814273,64.7174586 54.3124041,65.0145909 54.8883818,65.9571 C55.4643596,66.8996091 55.1672273,68.1305859 54.2247182,68.7065637 L48.2517454,72.3567137 C47.3092363,72.9326915 46.0782595,72.6355592 45.5022817,71.6930501 C44.9263039,70.750541 45.2234362,69.5195642 46.1659453,68.9435864 L52.1389182,65.2934363 Z M41.8995362,71.5508364 C42.8420452,70.9748587 44.0730221,71.271991 44.6489998,72.2145001 C45.2249776,73.1570092 44.9278453,74.387986 43.9853362,74.9639638 L38.0123634,78.6141138 C37.0698543,79.1900916 35.8388775,78.8929593 35.2628997,77.9504502 C34.6869219,77.0079411 34.9840542,75.7769643 35.9265633,75.2009865 L41.8995362,71.5508364 Z M34.6122584,79.0736506 C34.7777225,80.1657566 34.0265308,81.1852185 32.9344249,81.3506826 C32.1203269,81.4740259 31.2850308,81.343714 30.4835078,80.9408909 C28.4994744,79.86137 27.7549573,77.4392569 28.82341,75.4804269 L30.1298127,73.0853554 C30.6587381,72.1156587 31.8736114,71.7583431 32.8433081,72.2872685 C33.8130047,72.816194 34.1703204,74.0310673 33.641395,75.0007639 L32.3349923,77.3958355 C33.4273325,77.230353 34.4467944,77.9815447 34.6122584,79.0736506 Z M31.749935,69 C30.6453655,69 29.749935,68.1045695 29.749935,67 C29.749935,65.8954305 30.6453655,65 31.749935,65 L35.7272727,65 C37.245391,65 38.210018,66.624955 37.4830639,67.9577043 L36.0356556,70.6112861 C35.5067302,71.5809827 34.2918569,71.9382984 33.3221602,71.409373 C32.4516065,70.9345255 32.074614,69.9068241 32.389339,69 L31.749935,69 Z M26.749935,65 C27.8545045,65 28.749935,65.8954305 28.749935,67 C28.749935,68.1045695 27.8545045,69 26.749935,69 L19.749935,69 C18.6453655,69 17.749935,68.1045695 17.749935,67 C17.749935,65.8954305 18.6453655,65 19.749935,65 L26.749935,65 Z M15.1691333,64.914009 C16.2499713,65.1417437 16.9415481,66.2025515 16.7138133,67.2833894 C16.4860786,68.3642274 15.4252708,69.0558041 14.3444328,68.8280694 C11.1685376,68.1589018 8.69827172,65.6159845 8.12547253,62.417115 C7.93078162,61.329839 8.65436484,60.2905994 9.7416409,60.0959085 C10.828917,59.9012176 11.8681565,60.6248008 12.0628474,61.7120768 C12.3482606,63.3060029 13.5863602,64.5805154 15.1691333,64.914009 Z M12,57.1154262 C12,58.2199957 11.1045695,59.1154262 10,59.1154262 C8.8954305,59.1154262 8,58.2199957 8,57.1154262 L8,50.1154262 C8,49.0108567 8.8954305,48.1154262 10,48.1154262 C11.1045695,48.1154262 12,49.0108567 12,50.1154262 L12,57.1154262 Z M12,45.1154262 C12,46.2199957 11.1045695,47.1154262 10,47.1154262 C8.8954305,47.1154262 8,46.2199957 8,45.1154262 L8,38.1154262 C8,37.0108567 8.8954305,36.1154262 10,36.1154262 C11.1045695,36.1154262 12,37.0108567 12,38.1154262 L12,45.1154262 Z M12,33.1154262 C12,34.2199957 11.1045695,35.1154262 10,35.1154262 C8.8954305,35.1154262 8,34.2199957 8,33.1154262 L8,26.1154262 C8,25.0108567 8.8954305,24.1154262 10,24.1154262 C11.1045695,24.1154262 12,25.0108567 12,26.1154262 L12,33.1154262 Z M12,21.1154262 C12,22.2199957 11.1045695,23.1154262 10,23.1154262 C8.8954305,23.1154262 8,22.2199957 8,21.1154262 L8,16 C8,15.1492784 8.13351771,14.3141068 8.39280355,13.5187695 C8.73516733,12.4685977 9.86404047,11.8948059 10.9142123,12.2371697 C11.9643841,12.5795335 12.5381759,13.7084066 12.1958121,14.7585784 C12.0666378,15.1548094 12,15.5716382 12,16 L12,21.1154262 Z M14.416255,12.3252201 C13.4022024,12.763137 12.2251487,12.2960867 11.7872318,11.2820342 C11.3493149,10.2679816 11.8163652,9.0909278 12.8304178,8.65301095 C13.8235155,8.22414339 14.8978528,8 16,8 L20.5190825,8 C21.623652,8 22.5190825,8.8954305 22.5190825,10 C22.5190825,11.1045695 21.623652,12 20.5190825,12 L16,12 C15.4458328,12 14.9109148,12.1116021 14.416255,12.3252201 Z M25.5190825,12 C24.414513,12 23.5190825,11.1045695 23.5190825,10 C23.5190825,8.8954305 24.414513,8 25.5190825,8 L32.5190825,8 C33.623652,8 34.5190825,8.8954305 34.5190825,10 C34.5190825,11.1045695 33.623652,12 32.5190825,12 L25.5190825,12 Z M37.5190825,12 C36.414513,12 35.5190825,11.1045695 35.5190825,10 C35.5190825,8.8954305 36.414513,8 37.5190825,8 L44.5190825,8 C45.623652,8 46.5190825,8.8954305 46.5190825,10 C46.5190825,11.1045695 45.623652,12 44.5190825,12 L37.5190825,12 Z M49.5190825,12 C48.414513,12 47.5190825,11.1045695 47.5190825,10 C47.5190825,8.8954305 48.414513,8 49.5190825,8 L56.5190825,8 C57.623652,8 58.5190825,8.8954305 58.5190825,10 C58.5190825,11.1045695 57.623652,12 56.5190825,12 L49.5190825,12 Z M61.5190825,12 C60.414513,12 59.5190825,11.1045695 59.5190825,10 C59.5190825,8.8954305 60.414513,8 61.5190825,8 L68.5190825,8 C69.623652,8 70.5190825,8.8954305 70.5190825,10 C70.5190825,11.1045695 69.623652,12 68.5190825,12 L61.5190825,12 Z M73.5190825,12 C72.414513,12 71.5190825,11.1045695 71.5190825,10 C71.5190825,8.8954305 72.414513,8 73.5190825,8 L80.5190825,8 C81.623652,8 82.5190825,8.8954305 82.5190825,10 C82.5190825,11.1045695 81.623652,12 80.5190825,12 L73.5190825,12 Z M85.5190825,12 C84.414513,12 83.5190825,11.1045695 83.5190825,10 C83.5190825,8.8954305 84.414513,8 85.5190825,8 L92,8 C92.2307422,8 92.4605437,8.00982135 92.6889419,8.0293676 C93.7894887,8.12355203 94.6053065,9.092073 94.511122,10.1926197 C94.4169376,11.2931664 93.4484166,12.1089842 92.3478699,12.0147998 C92.2328679,12.004958 92.1168605,12 92,12 L85.5190825,12 Z M95.203094,13.6035368 C94.5403681,12.7198693 94.7194766,11.4662698 95.6031441,10.8035439 C96.4868115,10.140818 97.740411,10.3199266 98.4031369,11.203594 C99.4331493,12.576995 100,14.2482332 100,16 L100,19.1535913 C100,20.2581608 99.1045695,21.1535913 98,21.1535913 C96.8954305,21.1535913 96,20.2581608 96,19.1535913 L96,16 C96,15.1211899 95.7182047,14.2903767 95.203094,13.6035368 Z M96,24.1535913 C96,23.0490218 96.8954305,22.1535913 98,22.1535913 C99.1045695,22.1535913 100,23.0490218 100,24.1535913 L100,31.1535913 C100,32.2581608 99.1045695,33.1535913 98,33.1535913 C96.8954305,33.1535913 96,32.2581608 96,31.1535913 L96,24.1535913 Z M96,36.1535913 C96,35.0490218 96.8954305,34.1535913 98,34.1535913 C99.1045695,34.1535913 100,35.0490218 100,36.1535913 L100,43.1535913 C100,44.2581608 99.1045695,45.1535913 98,45.1535913 C96.8954305,45.1535913 96,44.2581608 96,43.1535913 L96,36.1535913 Z M96,48.1535913 C96,47.0490218 96.8954305,46.1535913 98,46.1535913 C99.1045695,46.1535913 100,47.0490218 100,48.1535913 L100,55.1535913 C100,56.2581608 99.1045695,57.1535913 98,57.1535913 C96.8954305,57.1535913 96,56.2581608 96,55.1535913 L96,48.1535913 Z M96,60.1535913 C96,59.0490218 96.8954305,58.1535913 98,58.1535913 C99.1045695,58.1535913 100,59.0490218 100,60.1535913 L100,61 C100,63.8590705 98.4859776,66.4577581 96.0718307,67.8873261 C95.1213998,68.450136 93.8946759,68.1359071 93.331866,67.1854762 C92.7690561,66.2350453 93.0832851,65.0083214 94.0337159,64.4455115 C95.2439428,63.7288601 96,62.4311538 96,61 L96,60.1535913 Z M90.2119,65 C91.3164695,65 92.2119,65.8954305 92.2119,67 C92.2119,68.1045695 91.3164695,69 90.2119,69 L83.2119,69 C82.1073305,69 81.2119,68.1045695 81.2119,67 C81.2119,65.8954305 82.1073305,65 83.2119,65 L90.2119,65 Z M78.2119,65 C79.3164695,65 80.2119,65.8954305 80.2119,67 C80.2119,68.1045695 79.3164695,69 78.2119,69 L71.2119,69 C70.1073305,69 69.2119,68.1045695 69.2119,67 C69.2119,65.8954305 70.1073305,65 71.2119,65 L78.2119,65 Z M66.2119,65 C67.3164695,65 68.2119,65.8954305 68.2119,67 C68.2119,68.1045695 67.3164695,69 66.2119,69 L59.2119,69 C58.1073305,69 57.2119,68.1045695 57.2119,67 C57.2119,65.8954305 58.1073305,65 59.2119,65 L66.2119,65 Z M54.2119,65 C55.3164695,65 56.2119,65.8954305 56.2119,67 C56.2119,68.1045695 55.3164695,69 54.2119,69 L53.1818182,69 C52.0772487,69 51.1818182,68.1045695 51.1818182,67 C51.1818182,65.8954305 52.0772487,65 53.1818182,65 L54.2119,65 Z" id="Combined-Shape" fill="#8C8C8C" fill-rule="nonzero"></path>
                    <g id="Group-6" transform="translate(37.000000, 29.000000)" fill="#AFAFAF">
                        <circle id="Oval" cx="2.5" cy="2.5" r="2.5"></circle>
                        <circle id="Oval-Copy-2" cx="22.5" cy="2.5" r="2.5"></circle>
                        <circle id="Oval-Copy" cx="12.5" cy="2.5" r="2.5"></circle>
                        <circle id="Oval-Copy-3" cx="32.5" cy="2.5" r="2.5"></circle>
                    </g>
                    <g id="Group-6-Copy" transform="translate(37.000000, 42.000000)" fill="#AFAFAF">
                        <circle id="Oval" cx="2.5" cy="2.5" r="2.5"></circle>
                        <circle id="Oval-Copy-2" cx="22.5" cy="2.5" r="2.5"></circle>
                        <circle id="Oval-Copy" cx="12.5" cy="2.5" r="2.5"></circle>
                        <circle id="Oval-Copy-3" cx="32.5" cy="2.5" r="2.5"></circle>
                    </g>
                </g>
            </g>
        </g>
    </g>
</svg>