<svg width="150" height="150" viewBox="0 0 150 150" fill="none" xmlns="http://www.w3.org/2000/svg">
<path d="M100.211 2.51716C85.9644 2.52314 80.2174 -1.22266 70.2232 2.52996C16.4957 2.55271 30.249 23.7878 10.2631 37.5404C-9.7227 51.2931 7.79198 103.764 10.2935 110.01C12.7951 116.256 41.5436 141.234 49.0404 141.231C52.792 148.726 91.2568 146.007 107.5 146C123.743 145.993 140.245 124.949 140.243 119.951C140.241 114.953 136.488 103.71 143.98 92.4614C151.472 81.213 148.971 74.9666 148.963 56.2244C148.958 44.7048 142.256 44.9818 140.211 42.4839C128.96 28.7444 120.202 2.50878 100.211 2.51716Z" fill="#ECF4F7"/>
<path fill-rule="evenodd" clip-rule="evenodd" d="M93.4695 15.0148C92.365 15.0153 91.4699 15.9111 91.4704 17.0157L91.4729 23.0115C91.4734 24.116 92.3692 25.0111 93.4737 25.0106L99.4695 25.0081C100.574 25.0077 101.469 24.1119 101.469 23.0073L101.466 17.0115C101.466 15.9069 100.57 15.0119 99.4653 15.0123L93.4695 15.0148ZM97.4758 35.0048C96.9235 35.005 96.476 35.4529 96.4762 36.0052L96.4774 39.0031C96.4777 39.5554 96.9256 40.0029 97.4779 40.0027L100.476 40.0015C101.028 40.0012 101.476 39.5533 101.475 39.001L101.474 36.0031C101.474 35.4509 101.026 35.0033 100.474 35.0036L97.4758 35.0048ZM121.475 58.4853C121.475 57.933 121.922 57.4851 122.475 57.4849L127.972 57.4826C128.524 57.4824 128.972 57.9299 128.972 58.4822L128.974 63.979C128.975 64.5313 128.527 64.9792 127.975 64.9795L122.478 64.9818C121.926 64.982 121.478 64.5345 121.477 63.9822L121.475 58.4853ZM18.524 70.0232C17.4195 70.0237 16.5244 70.9195 16.5249 72.024L16.5284 80.5188C16.5289 81.6234 17.4247 82.5184 18.5293 82.518L27.024 82.5144C28.1286 82.5139 29.0237 81.6181 29.0232 80.5135L29.0196 72.0188C29.0192 70.9142 28.1234 70.0192 27.0188 70.0196L18.524 70.0232ZM44.0332 119.493C44.0328 118.388 44.9278 117.492 46.0324 117.492L52.0282 117.489C53.1328 117.489 54.0286 118.384 54.029 119.488L54.0316 125.484C54.032 126.589 53.137 127.485 52.0324 127.485L46.0366 127.488C44.932 127.488 44.0362 126.593 44.0358 125.488L44.0332 119.493ZM32.5366 114.998C31.9843 114.999 31.5367 115.447 31.537 115.999L31.5382 118.997C31.5385 119.549 31.9864 119.997 32.5386 119.996L35.5366 119.995C36.0888 119.995 36.5364 119.547 36.5361 118.995L36.5349 115.997C36.5346 115.444 36.0867 114.997 35.5345 114.997L32.5366 114.998Z" fill="#DAE7ED"/>
<path fill-rule="evenodd" clip-rule="evenodd" d="M50.3143 90.0016C46.1807 90.6975 36.3878 95.0054 39.6963 98.3359C40.2367 98.8799 40.6959 99.3528 41.095 99.7639L41.095 99.7639C42.4569 101.167 43.1204 101.85 43.9283 102.183C44.6959 102.499 45.5938 102.498 47.3449 102.498C50.6524 102.496 55.8307 99.7174 56.5191 98.3288L50.3143 90.0016ZM60.3153 102.492C56.1816 103.049 46.3883 106.496 49.6966 109.161C50.2369 109.596 50.696 109.974 51.0952 110.303C52.397 111.375 53.0606 111.922 53.8223 112.201C54.6144 112.49 55.5126 112.49 57.3448 112.489C60.6523 112.488 65.8309 110.264 66.5194 109.153L60.3153 102.492ZM59.8123 119.071C56.1981 115.562 65.9589 113.217 70.4746 112.484L76.5194 119.064L76.5118 119.079C75.7611 120.539 74.8275 122.356 68.1675 122.359C67.9085 122.359 67.6375 122.385 67.3476 122.414C65.7683 122.568 63.6295 122.777 59.8123 119.071ZM80.4746 122.475C75.959 123.209 66.1982 125.553 69.8124 129.062C73.6296 132.769 75.7684 132.56 77.3477 132.405C77.6375 132.377 77.9085 132.35 78.1676 132.35C84.8276 132.347 85.7612 130.531 86.5118 129.07L86.5195 129.055L80.4746 122.475Z" fill="url(#paint0_linear)"/>
<path fill-rule="evenodd" clip-rule="evenodd" d="M149 114.29C146.046 110.038 142.591 107.815 139.741 105.981C136.465 103.874 133.988 102.28 133.987 98.713C133.982 87.8476 132.385 86.9401 126.956 83.8542C124.893 82.6817 122.277 81.1948 118.985 78.7277C112.502 73.8697 109.287 69.9441 106.92 67.0528C103.81 63.2552 102.162 61.242 96.4867 61.2444L115.25 111.216C106.246 116.188 100.805 113.194 98.2052 111.763C97.3182 111.275 96.7619 110.969 96.5077 111.223C88.9675 106.652 76.5229 127.475 76.5229 127.475C77.7729 128.724 95.5085 112.223 96.5077 111.223C95.0409 122.26 98.8791 128.637 104.579 132.461C115.751 129.384 122.347 135.263 126.976 139.39C128.882 141.088 130.455 142.49 131.876 142.847C133.71 141.586 136.9 139.1 141.5 134.5C148.561 127.439 148.981 116.229 149 114.29Z" fill="#FBCB9E"/>
<path fill-rule="evenodd" clip-rule="evenodd" d="M149 114.29C146.046 110.038 142.591 107.815 139.741 105.981C136.465 103.874 133.988 102.28 133.987 98.713C133.982 87.8476 132.385 86.9401 126.956 83.8542C124.893 82.6817 122.277 81.1948 118.985 78.7277C112.502 73.8697 109.287 69.9441 106.92 67.0528C103.81 63.2552 102.162 61.242 96.4867 61.2444L115.25 111.216C106.246 116.188 100.805 113.194 98.2052 111.763C97.3182 111.275 96.7619 110.969 96.5077 111.223C88.9675 106.652 76.5229 127.475 76.5229 127.475C77.7729 128.724 95.5085 112.223 96.5077 111.223C95.0409 122.26 98.8791 128.637 104.579 132.461C115.751 129.384 122.347 135.263 126.976 139.39C128.882 141.088 130.455 142.49 131.876 142.847C133.71 141.586 136.9 139.1 141.5 134.5C148.561 127.439 148.981 116.229 149 114.29Z" fill="url(#paint1_linear)"/>
<path d="M27.5361 50.3832C25.5887 46.9056 26.8292 42.5077 30.3068 40.5603L65.1489 21.0492C68.6265 19.1018 73.0244 20.3422 74.9718 23.8198L123.867 111.135C125.815 114.613 124.574 119.011 121.097 120.958L86.2544 140.469C82.7768 142.416 78.3789 141.176 76.4315 137.698L27.5361 50.3832Z" fill="#262624"/>
<path fill-rule="evenodd" clip-rule="evenodd" d="M48.1372 37.8684C47.6992 38.1137 47.5429 38.6676 47.7882 39.1057C48.0335 39.5437 48.5875 39.7 49.0255 39.4547L59.3364 33.6807C59.7745 33.4354 59.9307 32.8814 59.6854 32.4434C59.4401 32.0054 58.8861 31.8491 58.4481 32.0944L48.1372 37.8684ZM44.2677 42.1201C44.706 41.8747 44.8623 41.3205 44.6169 40.8823C44.3715 40.4441 43.8173 40.2878 43.3791 40.5332C42.9408 40.7786 42.7845 41.3328 43.0299 41.771C43.2753 42.2092 43.8295 42.3655 44.2677 42.1201Z" fill="#515151"/>
<mask id="mask0" mask-type="alpha" maskUnits="userSpaceOnUse" x="32" y="28" width="90" height="110">
<path d="M32.4514 53.3135C32.2021 52.8683 32.3906 52.2886 32.8725 52.0187L73.106 29.4885C73.5878 29.2187 74.1806 29.3608 74.4299 29.8061L121.381 113.649C121.63 114.095 121.442 114.674 120.96 114.944L80.7266 137.474C80.2447 137.744 79.6519 137.602 79.4026 137.157L32.4514 53.3135Z" fill="white"/>
</mask>
<g mask="url(#mask0)">
<rect x="32" y="52.9999" width="48" height="97.94" transform="rotate(-29.25 32 52.9999)" fill="white"/>
<path fill-rule="evenodd" clip-rule="evenodd" d="M88.9572 88.514C90.4475 88.7224 92.0159 88.4537 93.4201 87.643C93.8148 87.4152 94.1789 87.1546 94.5109 86.8669L99.5722 95.6333C100.305 96.9029 99.8662 98.5415 98.5965 99.2745L80.1291 109.937C78.8594 110.67 77.2209 110.231 76.4879 108.961L68.5028 95.1038C67.7697 93.8341 68.1972 92.2023 69.4669 91.4692L83.2018 83.5394C83.3558 84.067 83.5749 84.5847 83.8619 85.0819C84.5684 86.3055 85.5886 87.235 86.7622 87.8275L83.3653 94.2176L70.7996 93.7777L72.1324 96.0861L84.698 96.5261L88.9572 88.514ZM89.9843 86.5818C90.8133 86.5721 91.6514 86.3557 92.4205 85.9117C92.8202 85.6809 93.176 85.4033 93.4849 85.0897L91.5756 81.7827C90.8425 80.5131 89.204 80.074 87.9343 80.807L85.0066 82.4974C85.1076 83.0407 85.3012 83.5765 85.5933 84.0823C86.1051 84.9688 86.8475 85.6392 87.701 86.0615L89.2671 83.1155L90.5998 85.4239L89.9843 86.5818Z" fill="#2D9CDB"/>
<path d="M85.5932 84.0825C84.2131 81.692 85.0321 78.6353 87.4225 77.2552C89.813 75.8751 92.8697 76.6941 94.2498 79.0846C95.6299 81.475 94.8109 84.5317 92.4205 85.9118C90.03 87.292 86.9733 86.4729 85.5932 84.0825Z" fill="#EB5757"/>
</g>
<path d="M65.8089 76.6774L63.5183 77.9999L57.0107 72.8857C57.4146 73.4174 57.7837 73.9261 58.118 74.4118C58.4556 74.8847 58.8204 75.4605 59.2122 76.1392L61.0945 79.3993L59.4826 80.3299L54.6406 71.9434L56.8827 70.6489L63.4458 75.7472C62.6591 74.7578 62.0046 73.8107 61.4821 72.9058L59.355 69.2215L60.9669 68.2909L65.8089 76.6774Z" fill="#4A4A4A"/>
<path d="M67.7412 64.3797L68.296 65.7885L65.2661 67.5377L66.5256 69.7192L69.1676 68.1938L69.9093 69.4785L67.2673 71.0038L68.6037 73.3186L71.8517 71.4434L72.6074 72.7523L67.5779 75.6561L62.7359 67.2695L67.7412 64.3797Z" fill="#4A4A4A"/>
<path d="M78.2888 58.2901L81.6644 67.5232L79.3496 68.8597L74.4007 62.9749L76.9621 70.2381L74.7079 71.5396L68.4116 63.9927L70.1932 62.9641L75.1949 69.4163L72.4231 61.6766L74.3016 60.5921L79.5699 66.8903L76.6043 59.2627L78.2888 58.2901Z" fill="#4A4A4A"/>
<defs>
<linearGradient id="paint0_linear" x1="84.1687" y1="124.503" x2="79.7714" y2="136.966" gradientUnits="userSpaceOnUse">
<stop stop-color="#EDA969"/>
<stop offset="1" stop-color="#FBCB9E"/>
</linearGradient>
<linearGradient id="paint1_linear" x1="146.561" y1="74.3679" x2="112.866" y2="150.16" gradientUnits="userSpaceOnUse">
<stop stop-color="#EDA969"/>
<stop offset="1" stop-color="#FBCB9E"/>
</linearGradient>
</defs>
</svg>
