<svg width="150" height="150" viewBox="0 0 150 150" fill="none" xmlns="http://www.w3.org/2000/svg">
<path d="M47.5098 147.613C61.2863 147.613 77.449 148.052 87.1152 144.427C139.071 144.427 117.091 133.09 136.423 119.799C155.756 106.508 149.505 49.9646 147.088 43.9232C144.672 37.8818 122.452 13.504 122.452 13.504C112.576 5.24363 55.7613 -2.0299 52.3757 3.76843C45.0727 16.2757 19.5031 21.1539 8.84456 34.0341C5.76328 37.7577 12.4696 49.7417 5.21987 60.6162C-2.02982 71.4908 0.386591 77.5322 0.386592 95.6565C0.386593 106.796 6.86755 106.531 8.84457 108.947C19.7191 122.239 28.1774 147.613 47.5098 147.613Z" fill="#ECF4F7"/>
<rect x="50.665" y="16.6885" width="9.66626" height="9.66626" rx="2" transform="rotate(-45.3124 50.665 16.6885)" fill="#DAE7ED"/>
<rect x="5.54688" y="100.219" width="5.7328" height="5.7328" rx="2" transform="rotate(-45.3124 5.54688 100.219)" fill="#DAE7ED"/>
<rect x="107.696" y="133.516" width="5.7328" height="5.7328" rx="2.8664" transform="rotate(-45.3124 107.696 133.516)" fill="#DAE7ED"/>
<rect x="104.796" y="16.5547" width="5.7328" height="5.7328" rx="2.8664" transform="rotate(-45.3124 104.796 16.5547)" fill="#DAE7ED"/>
<rect x="134.761" y="99.6844" width="5.7328" height="5.7328" rx="2" transform="rotate(-45.3124 134.761 99.6844)" fill="#DAE7ED"/>
<rect x="138.08" y="88.8984" width="6.76638" height="6.76638" rx="1" transform="rotate(-80.0148 138.08 88.8984)" fill="#DAE7ED"/>
<path fill-rule="evenodd" clip-rule="evenodd" d="M73.4635 130.551C104.427 130.551 129.528 105.45 129.528 74.4863C129.528 43.5229 104.427 18.422 73.4635 18.422C42.5001 18.422 17.3992 43.5229 17.3992 74.4863C17.3992 105.45 42.5001 130.551 73.4635 130.551ZM73.4635 134.417C106.562 134.417 133.394 107.585 133.394 74.4863C133.394 41.3875 106.562 14.5555 73.4635 14.5555C40.3646 14.5555 13.5327 41.3875 13.5327 74.4863C13.5327 107.585 40.3646 134.417 73.4635 134.417ZM123.325 74.0031C123.325 101.808 100.785 124.348 72.98 124.348C45.1751 124.348 22.6349 101.808 22.6349 74.0031C22.6349 46.1983 45.1751 23.658 72.98 23.658C100.785 23.658 123.325 46.1983 123.325 74.0031ZM66.3458 85.8355C65.6141 86.5666 64.4457 86.6191 63.6513 85.9566L51.028 75.4292C50.1148 74.6675 48.7426 74.8663 48.083 75.8557L45.2717 80.0727C44.7084 80.9176 44.8676 82.0504 45.6419 82.7072L63.6376 97.9741C64.4361 98.6516 65.6221 98.5983 66.3568 97.852L103.144 60.4784C103.975 59.6338 103.894 58.2555 102.969 57.5145L99.7734 54.9549C98.9779 54.3177 97.8305 54.3806 97.1094 55.101L66.3458 85.8355Z" fill="#27AE60"/>
</svg>
