<svg width="150" height="150" viewBox="0 0 150 150" fill="none" xmlns="http://www.w3.org/2000/svg">
<path d="M47.5098 147.613C61.2863 147.613 77.449 148.052 87.1152 144.427C139.071 144.427 117.091 133.09 136.423 119.799C155.756 106.508 149.505 49.9646 147.088 43.9232C144.672 37.8818 122.452 13.504 122.452 13.504C112.576 5.24363 55.7613 -2.0299 52.3757 3.76843C45.0727 16.2757 19.5031 21.1539 8.84456 34.0341C5.76328 37.7577 12.4696 49.7417 5.21987 60.6162C-2.02982 71.4908 0.386591 77.5322 0.386592 95.6565C0.386593 106.796 6.86755 106.531 8.84457 108.947C19.7191 122.239 28.1774 147.613 47.5098 147.613Z" fill="#ECF4F7"/>
<rect x="50.665" y="16.6885" width="9.66626" height="9.66626" rx="2" transform="rotate(-45.3124 50.665 16.6885)" fill="#DAE7ED"/>
<rect x="5.54688" y="100.22" width="5.7328" height="5.7328" rx="2" transform="rotate(-45.3124 5.54688 100.22)" fill="#DAE7ED"/>
<rect x="107.696" y="133.516" width="5.7328" height="5.7328" rx="2.8664" transform="rotate(-45.3124 107.696 133.516)" fill="#DAE7ED"/>
<rect x="104.796" y="16.5547" width="5.7328" height="5.7328" rx="2.8664" transform="rotate(-45.3124 104.796 16.5547)" fill="#DAE7ED"/>
<rect x="134.761" y="99.6844" width="5.7328" height="5.7328" rx="2" transform="rotate(-45.3124 134.761 99.6844)" fill="#DAE7ED"/>
<rect x="138.08" y="88.8984" width="6.76638" height="6.76638" rx="1" transform="rotate(-80.0148 138.08 88.8984)" fill="#DAE7ED"/>
<path fill-rule="evenodd" clip-rule="evenodd" d="M73.464 130.551C104.427 130.551 129.528 105.45 129.528 74.4863C129.528 43.5229 104.427 18.422 73.464 18.422C42.5005 18.422 17.3997 43.5229 17.3997 74.4863C17.3997 105.45 42.5005 130.551 73.464 130.551ZM73.464 134.417C106.563 134.417 133.395 107.585 133.395 74.4863C133.395 41.3875 106.563 14.5555 73.464 14.5555C40.3651 14.5555 13.5332 41.3875 13.5332 74.4863C13.5332 107.585 40.3651 134.417 73.464 134.417ZM123.691 74.3451C123.691 102.15 101.15 124.69 73.3456 124.69C45.5407 124.69 23.0005 102.15 23.0005 74.3451C23.0005 46.5403 45.5407 24 73.3456 24C101.15 24 123.691 46.5403 123.691 74.3451ZM51.5627 89.1453L56.5544 84.2907L67.2582 73.597L51.5546 57.6429C50.7232 56.7982 50.8046 55.42 51.7295 54.679L54.9248 52.1194C55.7203 51.4822 56.8677 51.5451 57.5888 52.2654L73.0994 67.7614L88.61 52.2654C89.331 51.5451 90.4784 51.4822 91.2739 52.1194L94.4692 54.679C95.3942 55.42 95.4755 56.7982 94.6441 57.6429L78.9405 73.597L89.6443 84.2907L94.6361 89.1453C95.4763 89.9625 95.437 91.3237 94.551 92.091L91.0627 95.1118C90.2651 95.8025 89.0682 95.7548 88.3281 95.0029L73.0994 79.5313L57.8706 95.0029C57.1305 95.7548 55.9336 95.8025 55.136 95.1118L51.6478 92.091C50.7618 91.3237 50.7224 89.9625 51.5627 89.1453Z" fill="#EB5757"/>
</svg>
